<?xml version="1.0" encoding="UTF-8"?>
<!DOCTYPE svg PUBLIC "-//W3C//DTD SVG 1.1//EN" "http://www.w3.org/Graphics/SVG/1.1/DTD/svg11.dtd">
<svg xmlns="http://www.w3.org/2000/svg" version="1.1" width="225px" height="225px" style="shape-rendering:geometricPrecision; text-rendering:geometricPrecision; image-rendering:optimizeQuality; fill-rule:evenodd; clip-rule:evenodd" xmlns:xlink="http://www.w3.org/1999/xlink">
<g><path style="opacity:0" fill="#fefefe" d="M -0.5,-0.5 C 74.5,-0.5 149.5,-0.5 224.5,-0.5C 224.5,74.5 224.5,149.5 224.5,224.5C 149.5,224.5 74.5,224.5 -0.5,224.5C -0.5,149.5 -0.5,74.5 -0.5,-0.5 Z"/></g>
<g><path style="opacity:1" fill="#e3dcfa" d="M 140.5,2.5 C 140.56,1.95691 140.893,1.62358 141.5,1.5C 142.5,49.8287 142.833,98.1621 142.5,146.5C 141.833,98.5 141.167,50.5 140.5,2.5 Z"/></g>
<g><path style="opacity:1" fill="#5927e3" d="M 140.5,2.5 C 141.167,50.5 141.833,98.5 142.5,146.5C 154.505,146.333 166.505,146.5 178.5,147C 160,162.167 141.5,177.333 123,192.5C 122.333,133.5 122.333,74.5 123,15.5C 128.812,11.0239 134.645,6.69059 140.5,2.5 Z"/></g>
<g><path style="opacity:1" fill="#5c2ce4" d="M 89.5,220.5 C 88.8333,171.833 88.1667,123.167 87.5,74.5C 75.8333,73.8333 64.1667,73.1667 52.5,72.5C 70.4811,58.1903 88.4811,43.8569 106.5,29.5C 107.833,88.5 107.833,147.5 106.5,206.5C 100.814,211.19 95.1475,215.857 89.5,220.5 Z"/></g>
<g><path style="opacity:1" fill="#8466e9" d="M 52.5,72.5 C 64.1667,73.1667 75.8333,73.8333 87.5,74.5C 75.1622,74.6665 62.8288,74.4999 50.5,74C 51.0442,73.2828 51.7109,72.7828 52.5,72.5 Z"/></g>
<g><path style="opacity:1" fill="#a08aed" d="M 87.5,74.5 C 88.1667,123.167 88.8333,171.833 89.5,220.5C 89.44,221.043 89.1067,221.376 88.5,221.5C 87.5001,172.505 87.1667,123.505 87.5,74.5 Z"/></g>
</svg>
