<?xml version="1.0" encoding="UTF-8"?>
<!DOCTYPE svg PUBLIC "-//W3C//DTD SVG 1.1//EN" "http://www.w3.org/Graphics/SVG/1.1/DTD/svg11.dtd">
<svg xmlns="http://www.w3.org/2000/svg" version="1.1" width="256px" height="256px" style="shape-rendering:geometricPrecision; text-rendering:geometricPrecision; image-rendering:optimizeQuality; fill-rule:evenodd; clip-rule:evenodd" xmlns:xlink="http://www.w3.org/1999/xlink">
<g><path style="opacity:1" fill="#854195" d="M -0.5,-0.5 C 84.8333,-0.5 170.167,-0.5 255.5,-0.5C 255.5,84.8333 255.5,170.167 255.5,255.5C 170.167,255.5 84.8333,255.5 -0.5,255.5C -0.5,170.167 -0.5,84.8333 -0.5,-0.5 Z"/></g>
<g><path style="opacity:1" fill="#fdfdfe" d="M 207.5,87.5 C 218.298,97.7979 228.965,108.298 239.5,119C 188.5,119.667 137.5,119.667 86.5,119C 81.5,114 76.5,109 71.5,104C 116.832,103.5 162.165,103.333 207.5,103.5C 207.5,98.1667 207.5,92.8333 207.5,87.5 Z"/></g>
<g><path style="opacity:1" fill="#fdfdfe" d="M 15.5,136.5 C 66.3317,135.335 117.332,135.168 168.5,136C 173.5,141 178.5,146 183.5,151C 138.168,151.5 92.8346,151.667 47.5,151.5C 47.666,156.844 47.4994,162.177 47,167.5C 36.6317,156.965 26.1317,146.631 15.5,136.5 Z"/></g>
<g><path style="opacity:1" fill="#f8f4f9" d="M 162.5,189.5 C 164.833,189.5 167.167,189.5 169.5,189.5C 169.5,191.833 169.5,194.167 169.5,196.5C 167.167,196.5 164.833,196.5 162.5,196.5C 162.5,194.167 162.5,191.833 162.5,189.5 Z"/></g>
<g><path style="opacity:1" fill="#fbf8fb" d="M 121.5,238.5 C 118.856,238.84 116.523,238.173 114.5,236.5C 113.893,236.624 113.56,236.957 113.5,237.5C 106.983,240.589 100.816,239.922 95,235.5C 92.8793,230.558 93.046,225.725 95.5,221C 97.2166,219.441 99.2166,218.608 101.5,218.5C 106.167,218.5 110.833,218.5 115.5,218.5C 115.768,216.901 115.434,215.568 114.5,214.5C 114.141,212.629 113.141,211.129 111.5,210C 107.428,209.044 103.595,209.544 100,211.5C 94.1705,208.918 94.3372,206.418 100.5,204C 104.833,203.333 109.167,203.333 113.5,204C 117.333,205.167 119.833,207.667 121,211.5C 121.5,220.494 121.666,229.494 121.5,238.5 Z"/></g>
<g><path style="opacity:1" fill="#f9f6fa" d="M 156.5,237.5 C 154.393,238.468 152.059,238.802 149.5,238.5C 147.01,234.862 144.51,231.195 142,227.5C 138.781,231.052 135.948,234.885 133.5,239C 130.833,239.667 128.167,239.667 125.5,239C 129.754,233.155 133.754,227.155 137.5,221C 133.849,215.344 130.182,209.677 126.5,204C 129.167,203.333 131.833,203.333 134.5,204C 136.876,207.919 139.376,211.752 142,215.5C 144.127,211.411 146.627,207.577 149.5,204C 151.902,203.186 154.235,203.353 156.5,204.5C 152.709,209.914 149.043,215.414 145.5,221C 149.053,226.615 152.72,232.115 156.5,237.5 Z"/></g>
<g><path style="opacity:1" fill="#fefffe" d="M 168.5,203.5 C 168.5,215.167 168.5,226.833 168.5,238.5C 166.5,238.5 164.5,238.5 162.5,238.5C 162.5,226.833 162.5,215.167 162.5,203.5C 164.5,203.5 166.5,203.5 168.5,203.5 Z"/></g>
<g><path style="opacity:1" fill="#dcc8e0" d="M 168.5,203.5 C 169.495,215.322 169.828,227.322 169.5,239.5C 166.941,239.802 164.607,239.468 162.5,238.5C 164.5,238.5 166.5,238.5 168.5,238.5C 168.5,226.833 168.5,215.167 168.5,203.5 Z"/></g>
<g><path style="opacity:1" fill="#f9f6fa" d="M 184.5,203.5 C 201.754,202.267 208.587,210.267 205,227.5C 200.818,239.334 192.985,242.5 181.5,237C 179.383,235.269 177.883,233.102 177,230.5C 176.333,224.167 176.333,217.833 177,211.5C 178.69,207.979 181.19,205.312 184.5,203.5 Z"/></g>
<g><path style="opacity:1" fill="#faf7fa" d="M 217.5,203.5 C 222.179,203.334 226.845,203.501 231.5,204C 240.03,205.21 241.03,208.044 234.5,212.5C 230.197,209.877 225.53,209.043 220.5,210C 217.141,212.034 216.808,214.368 219.5,217C 224.21,217.375 228.877,218.042 233.5,219C 239.089,221.451 240.922,225.617 239,231.5C 237.755,235.742 234.922,238.242 230.5,239C 222.91,240.639 216.077,239.139 210,234.5C 210.101,232.044 211.435,230.378 214,229.5C 217.283,231.817 220.95,233.151 225,233.5C 230.839,233.514 233.006,230.848 231.5,225.5C 226.627,224.012 221.627,223.178 216.5,223C 215.069,222.535 213.903,221.701 213,220.5C 209.931,213.46 211.431,207.793 217.5,203.5 Z"/></g>
<g><path style="opacity:1" fill="#884597" d="M 187.5,209.5 C 191.639,208.704 194.805,210.037 197,213.5C 198.363,217.761 198.696,222.095 198,226.5C 196.171,232.158 192.337,233.992 186.5,232C 185.299,231.097 184.465,229.931 184,228.5C 183.333,223.5 183.333,218.5 184,213.5C 185.102,212.051 186.269,210.718 187.5,209.5 Z"/></g>
<g><path style="opacity:1" fill="#c3a1cb" d="M 114.5,214.5 C 115.434,215.568 115.768,216.901 115.5,218.5C 110.833,218.5 106.167,218.5 101.5,218.5C 105.634,217.515 109.968,217.182 114.5,217.5C 114.5,216.5 114.5,215.5 114.5,214.5 Z"/></g>
<g><path style="opacity:1" fill="#874597" d="M 102.5,223.5 C 106.5,223.5 110.5,223.5 114.5,223.5C 114.817,226.572 114.484,229.572 113.5,232.5C 109.892,233.593 106.225,233.76 102.5,233C 98.5808,229.84 98.5808,226.673 102.5,223.5 Z"/></g>
<g><path style="opacity:1" fill="#bf9cc7" d="M 156.5,237.5 C 157.043,237.56 157.376,237.893 157.5,238.5C 154.691,239.8 152.024,239.8 149.5,238.5C 152.059,238.802 154.393,238.468 156.5,237.5 Z"/></g>
<g><path style="opacity:1" fill="#c09cc8" d="M 113.5,237.5 C 113.56,236.957 113.893,236.624 114.5,236.5C 116.523,238.173 118.856,238.84 121.5,238.5C 118.67,239.937 116.003,239.604 113.5,237.5 Z"/></g>
</svg>
