<?xml version="1.0" encoding="UTF-8"?>
<!DOCTYPE svg PUBLIC "-//W3C//DTD SVG 1.1//EN" "http://www.w3.org/Graphics/SVG/1.1/DTD/svg11.dtd">
<svg xmlns="http://www.w3.org/2000/svg" version="1.1" width="512px" height="364px" style="shape-rendering:geometricPrecision; text-rendering:geometricPrecision; image-rendering:optimizeQuality; fill-rule:evenodd; clip-rule:evenodd" xmlns:xlink="http://www.w3.org/1999/xlink">
<g><path style="opacity:0.961" fill="#e0ab88" d="M -0.5,2.5 C 36.0017,2.92501 66.335,16.5917 90.5,43.5C 89.8333,98.5 89.1667,153.5 88.5,208.5C 62.2284,207.272 39.395,197.938 20,180.5C 9.03658,168.097 2.20324,153.763 -0.5,137.5C -0.5,127.5 -0.5,117.5 -0.5,107.5C 2.34631,94.7953 5.84631,82.1286 10,69.5C 12.2024,53.7757 11.8691,38.109 9,22.5C 7.35402,15.8642 4.18735,10.1975 -0.5,5.5C -0.5,4.5 -0.5,3.5 -0.5,2.5 Z"/></g>
<g><path style="opacity:0.967" fill="#e0ab88" d="M 511.5,2.5 C 511.5,3.5 511.5,4.5 511.5,5.5C 506.813,10.1975 503.646,15.8642 502,22.5C 499.113,38.1033 498.78,53.7699 501,69.5C 505.445,80.6767 508.945,92.01 511.5,103.5C 511.5,113.5 511.5,123.5 511.5,133.5C 505.364,167.815 485.697,190.648 452.5,202C 442.755,205.382 432.755,207.549 422.5,208.5C 421.833,153.5 421.167,98.5 420.5,43.5C 444.665,16.5917 474.998,2.92501 511.5,2.5 Z"/></g>
<g><path style="opacity:1" fill="#fec39b" d="M 12.5,10.5 C 42.791,14.2281 67.9576,27.5614 88,50.5C 88.5,100.832 88.6667,151.166 88.5,201.5C 26.5093,195.335 -0.324073,161.335 8,99.5C 11.6488,88.2338 14.9822,76.9005 18,65.5C 18.6667,53.5 18.6667,41.5 18,29.5C 16.8624,22.9254 15.0291,16.592 12.5,10.5 Z"/></g>
<g><path style="opacity:1" fill="#fec39b" d="M 495.5,10.5 C 496.5,10.5 497.5,10.5 498.5,10.5C 495.971,16.592 494.138,22.9254 493,29.5C 492.333,40.8333 492.333,52.1667 493,63.5C 495.523,75.0693 498.856,86.4026 503,97.5C 510.577,158.644 483.743,193.31 422.5,201.5C 422.333,151.166 422.5,100.832 423,50.5C 442.394,28.3889 466.561,15.0556 495.5,10.5 Z"/></g>
<g><path style="opacity:0.968" fill="#a16a4a" d="M 90.5,43.5 C 105.039,56.8724 120.039,69.7057 135.5,82C 145.506,89.3407 156.173,95.674 167.5,101C 172.077,102.644 176.744,103.978 181.5,105C 230.833,105.667 280.167,105.667 329.5,105C 334.256,103.978 338.923,102.644 343.5,101C 361.522,91.9641 378.189,80.9641 393.5,68C 402.37,59.6266 411.37,51.4599 420.5,43.5C 421.167,98.5 421.833,153.5 422.5,208.5C 422.906,230.199 422.406,251.866 421,273.5C 413.502,302.991 396.335,324.825 369.5,339C 349.026,349.491 327.359,356.158 304.5,359C 260.367,364.943 216.7,362.61 173.5,352C 142.86,344.126 118.693,327.292 101,301.5C 94.1991,290.431 90.1991,278.431 89,265.5C 88.5001,246.503 88.3334,227.503 88.5,208.5C 89.1667,153.5 89.8333,98.5 90.5,43.5 Z"/></g>
<g><path style="opacity:1" fill="#b08159" d="M 95.5,57.5 C 116.358,78.2642 140.025,95.0975 166.5,108C 170.773,109.535 175.106,110.869 179.5,112C 229.5,112.667 279.5,112.667 329.5,112C 346.563,107.635 362.23,100.302 376.5,90C 389.92,79.918 402.753,69.0846 415,57.5C 415.667,126.833 415.667,196.167 415,265.5C 410.096,294.48 394.929,316.313 369.5,331C 348.824,342.005 326.824,349.005 303.5,352C 259.672,358.357 216.339,356.024 173.5,345C 148.761,338.226 128.261,325.06 112,305.5C 102.73,293.027 97.3968,279.027 96,263.5C 95.5,194.834 95.3333,126.167 95.5,57.5 Z"/></g>
<g><path style="opacity:1" fill="#fefdfc" d="M 162.5,118.5 C 204.727,117.179 231.227,136.845 242,177.5C 245.218,215.09 229.551,241.09 195,255.5C 160.108,265.095 132.442,255.095 112,225.5C 93.3872,187.707 100.554,155.874 133.5,130C 142.615,124.468 152.282,120.635 162.5,118.5 Z"/></g>
<g><path style="opacity:1" fill="#fec49d" d="M 189.5,171.5 C 183.25,169.472 176.917,169.139 170.5,170.5C 154.063,174.469 139.896,182.469 128,194.5C 128.999,173.006 139.166,157.506 158.5,148C 188.53,139.004 211.03,148.17 226,175.5C 229.035,181.515 230.035,187.848 229,194.5C 218.004,183.086 204.838,175.419 189.5,171.5 Z"/></g>
<g><path style="opacity:1" fill="#fec39b" d="M 383.5,194.5 C 371.15,182.324 356.483,174.324 339.5,170.5C 334.5,169.167 329.5,169.167 324.5,170.5C 307.755,174.26 293.421,182.26 281.5,194.5C 283.293,168.779 296.626,152.279 321.5,145C 353.826,141.564 374.326,155.398 383,186.5C 383.497,189.146 383.664,191.813 383.5,194.5 Z"/></g>
<g><path style="opacity:1" fill="#39434f" d="M 189.5,171.5 C 206.46,182.84 208.96,196.84 197,213.5C 193.272,216.777 189.105,219.11 184.5,220.5C 180.167,220.5 175.833,220.5 171.5,220.5C 154.342,212.17 149.509,199.17 157,181.5C 160.769,176.894 165.269,173.227 170.5,170.5C 176.917,169.139 183.25,169.472 189.5,171.5 Z"/></g>
<g><path style="opacity:1" fill="#39434f" d="M 339.5,170.5 C 357.606,178.982 362.106,192.315 353,210.5C 350.228,213.783 347.061,216.45 343.5,218.5C 337.635,220.156 331.635,220.823 325.5,220.5C 311.692,214.904 305.525,204.571 307,189.5C 309.955,180.383 315.789,174.05 324.5,170.5C 329.5,169.167 334.5,169.167 339.5,170.5 Z"/></g>
<g><path style="opacity:1" fill="#fdfbfb" d="M 324.5,170.5 C 315.789,174.05 309.955,180.383 307,189.5C 305.525,204.571 311.692,214.904 325.5,220.5C 308.485,216.662 293.818,208.662 281.5,196.5C 281.5,195.833 281.5,195.167 281.5,194.5C 293.421,182.26 307.755,174.26 324.5,170.5 Z"/></g>
<g><path style="opacity:1" fill="#fcfbfa" d="M 339.5,170.5 C 356.483,174.324 371.15,182.324 383.5,194.5C 383.5,194.833 383.5,195.167 383.5,195.5C 374.916,203.799 365.249,210.632 354.5,216C 350.93,217.31 347.263,218.143 343.5,218.5C 347.061,216.45 350.228,213.783 353,210.5C 362.106,192.315 357.606,178.982 339.5,170.5 Z"/></g>
<g><path style="opacity:1" fill="#000001" d="M 172.5,176.5 C 192.05,175.54 199.883,184.54 196,203.5C 188.957,214.954 179.457,217.454 167.5,211C 157.71,201.569 157.043,191.569 165.5,181C 167.898,179.476 170.231,177.976 172.5,176.5 Z"/></g>
<g><path style="opacity:1" fill="#000001" d="M 326.5,176.5 C 343.664,174.835 351.831,182.502 351,199.5C 345.66,213.086 336.16,217.252 322.5,212C 312.806,204.135 310.973,194.635 317,183.5C 319.79,180.535 322.957,178.202 326.5,176.5 Z"/></g>
<g><path style="opacity:1" fill="#fec39c" d="M 383.5,195.5 C 382.063,219.552 370.063,235.719 347.5,244C 318.894,250.446 298.061,240.612 285,214.5C 282.559,208.738 281.392,202.738 281.5,196.5C 293.818,208.662 308.485,216.662 325.5,220.5C 331.635,220.823 337.635,220.156 343.5,218.5C 347.263,218.143 350.93,217.31 354.5,216C 365.249,210.632 374.916,203.799 383.5,195.5 Z"/></g>
<g><path style="opacity:1" fill="#fec49d" d="M 171.5,220.5 C 175.833,220.5 180.167,220.5 184.5,220.5C 201.833,217.084 216.666,209.084 229,196.5C 227.456,221.054 214.956,237.22 191.5,245C 169.907,249.581 152.074,243.414 138,226.5C 131.254,217.262 127.921,206.929 128,195.5C 139.94,208.269 154.44,216.603 171.5,220.5 Z"/></g>
<g><path style="opacity:1" fill="#fec39c" d="M 318.5,285.5 C 312.374,294.435 304.04,300.602 293.5,304C 268.982,312.28 244.315,312.613 219.5,305C 208.187,301.104 199.187,294.938 192.5,286.5C 189.782,276.16 192.782,267.66 201.5,261C 210.674,255.051 220.674,251.051 231.5,249C 243.627,231.037 258.127,228.87 275,242.5C 276.377,244.754 277.877,246.92 279.5,249C 290.172,251.337 300.172,255.337 309.5,261C 318,267.348 321,275.514 318.5,285.5 Z"/></g>
<g><path style="opacity:1" fill="#e1ad8a" d="M 246.5,246.5 C 250.257,246.302 253.257,247.635 255.5,250.5C 259.66,245.235 263.827,245.235 268,250.5C 267.192,260.236 263.026,261.903 255.5,255.5C 249.8,261.393 245.467,260.56 242.5,253C 243.205,250.458 244.539,248.292 246.5,246.5 Z"/></g>
<g><path style="opacity:1" fill="#fefefd" d="M 318.5,285.5 C 314.884,313.933 300.051,333.933 274,345.5C 254.052,352.073 235.885,348.906 219.5,336C 204.099,323.034 195.099,306.534 192.5,286.5C 199.187,294.938 208.187,301.104 219.5,305C 244.315,312.613 268.982,312.28 293.5,304C 304.04,300.602 312.374,294.435 318.5,285.5 Z"/></g>
</svg>
